<?xml version="1.0" encoding="UTF-8" standalone="no"?>
<!-- Generator: Adobe Illustrator 19.1.0, SVG Export Plug-In . SVG Version: 6.00 Build 0)  -->

<svg
   xmlns:dc="http://purl.org/dc/elements/1.1/"
   xmlns:cc="http://creativecommons.org/ns#"
   xmlns:rdf="http://www.w3.org/1999/02/22-rdf-syntax-ns#"
   xmlns:svg="http://www.w3.org/2000/svg"
   xmlns="http://www.w3.org/2000/svg"
   xmlns:sodipodi="http://sodipodi.sourceforge.net/DTD/sodipodi-0.dtd"
   xmlns:inkscape="http://www.inkscape.org/namespaces/inkscape"
   version="1.1"
   id="Layer_2"
   x="0px"
   y="0px"
   viewBox="0 0 64 64"
   style="enable-background:new 0 0 64 64;"
   xml:space="preserve"
   sodipodi:docname="drop-no-percentage.svg"
   inkscape:version="0.92.4 (5da689c313, 2019-01-14)"><metadata
   id="metadata3819"><rdf:RDF><cc:Work
       rdf:about=""><dc:format>image/svg+xml</dc:format><dc:type
         rdf:resource="http://purl.org/dc/dcmitype/StillImage" /><dc:title></dc:title></cc:Work></rdf:RDF></metadata><defs
   id="defs3817" /><sodipodi:namedview
   pagecolor="#ffffff"
   bordercolor="#666666"
   borderopacity="1"
   objecttolerance="10"
   gridtolerance="10"
   guidetolerance="10"
   inkscape:pageopacity="0"
   inkscape:pageshadow="2"
   inkscape:window-width="1920"
   inkscape:window-height="1017"
   id="namedview3815"
   showgrid="false"
   inkscape:zoom="13.25"
   inkscape:cx="23.283019"
   inkscape:cy="32"
   inkscape:window-x="-8"
   inkscape:window-y="32"
   inkscape:window-maximized="1"
   inkscape:current-layer="Layer_2" />
<style
   type="text/css"
   id="style3802">
	.st0{fill:#202020;}
</style>
<g
   id="g3812">
	<path
   class="st0"
   d="M32,64c-11.9,0-21.6-9.9-21.6-22c0-0.5,0-1.1,0.1-1.7c0.1-1.8,0.5-3.6,1-5.2c4-14.3,18.3-32.4,18.9-33.1L32,0   l1.5,1.9c0.6,0.8,14.9,18.9,19,33.2c0.5,1.6,0.9,3.4,1,5.2c0.1,0.6,0.1,1.2,0.1,1.7C53.6,54.1,43.9,64,32,64z M32,6.4   c-3.8,5.1-13.6,18.9-16.7,29.8c-0.5,1.5-0.8,2.9-0.9,4.4c0,0.5-0.1,1-0.1,1.4c0,10,7.9,18.1,17.7,18.1S49.7,52,49.7,42   c0-0.4,0-0.8-0.1-1.3l0,0c-0.1-1.5-0.4-3-0.8-4.3C45.6,25.3,35.8,11.5,32,6.4z"
   id="path3804" />
	
	
	
</g>
</svg>