<?xml version="1.0" encoding="UTF-8" standalone="no"?>
<!-- Generator: Adobe Illustrator 19.0.0, SVG Export Plug-In . SVG Version: 6.00 Build 0)  -->

<svg
   xmlns:dc="http://purl.org/dc/elements/1.1/"
   xmlns:cc="http://creativecommons.org/ns#"
   xmlns:rdf="http://www.w3.org/1999/02/22-rdf-syntax-ns#"
   xmlns:svg="http://www.w3.org/2000/svg"
   xmlns="http://www.w3.org/2000/svg"
   xmlns:sodipodi="http://sodipodi.sourceforge.net/DTD/sodipodi-0.dtd"
   xmlns:inkscape="http://www.inkscape.org/namespaces/inkscape"
   version="1.1"
   id="Capa_1"
   x="0px"
   y="0px"
   viewBox="0 0 512 512"
   style="enable-background:new 0 0 512 512;"
   xml:space="preserve"
   sodipodi:docname="gauge-ungraded.svg"
   inkscape:version="0.92.4 (5da689c313, 2019-01-14)"><metadata
   id="metadata3941"><rdf:RDF><cc:Work
       rdf:about=""><dc:format>image/svg+xml</dc:format><dc:type
         rdf:resource="http://purl.org/dc/dcmitype/StillImage" /><dc:title></dc:title></cc:Work></rdf:RDF></metadata><defs
   id="defs3939" /><sodipodi:namedview
   pagecolor="#ffffff"
   bordercolor="#666666"
   borderopacity="1"
   objecttolerance="10"
   gridtolerance="10"
   guidetolerance="10"
   inkscape:pageopacity="0"
   inkscape:pageshadow="2"
   inkscape:window-width="1920"
   inkscape:window-height="1017"
   id="namedview3937"
   showgrid="false"
   inkscape:zoom="0.921875"
   inkscape:cx="103.20962"
   inkscape:cy="297.47742"
   inkscape:window-x="-8"
   inkscape:window-y="32"
   inkscape:window-maximized="1"
   inkscape:current-layer="Capa_1" />
<g
   id="g3904">
	<g
   id="g3902">
		<g
   id="g3900">
			<path
   d="M256,0C114.848,0,0,114.848,0,256s114.848,256,256,256s256-114.848,256-256S397.152,0,256,0z M256,490.667     c-107.211,0-197.792-72.288-225.717-170.667h151.808c17.771,26.837,45.003,42.667,73.909,42.667     c28.907,0,56.139-15.829,73.909-42.667h151.808C453.792,418.379,363.211,490.667,256,490.667z M323.989,298.667     c-3.786-0.002-7.29,2.004-9.205,5.269c-13.717,23.413-35.691,37.397-58.784,37.397s-45.067-13.984-58.784-37.397     c-1.916-3.266-5.419-5.271-9.205-5.269H25.291c-2.617-14.072-3.941-28.354-3.957-42.667     C21.333,126.603,126.603,21.333,256,21.333S490.667,126.603,490.667,256c-0.016,14.313-1.341,28.595-3.957,42.667H323.989z"
   id="path3882" />
			<path
   d="M 369.84246,110.08053 270.283,215.968 c -4.573,-1.698 -9.405,-2.589 -14.283,-2.635 -23.564,0 -42.667,19.102 -42.667,42.667 0,23.565 19.102,42.667 42.667,42.667 23.44,0.119 42.539,-18.786 42.658,-42.226 0.053,-10.359 -3.685,-20.38 -10.509,-28.174 l 96.77546,-103.10347 c 4.093,-4.237 3.976,-10.99 -0.262,-15.083 -4.133,-3.993 -10.686,-3.993 -14.82,0 z M 256,277.333 c -11.782,0 -21.333,-9.551 -21.333,-21.333 0,-11.782 9.551,-21.333 21.333,-21.333 11.782,0 21.333,9.551 21.333,21.333 0,11.782 -9.551,21.333 -21.333,21.333 z"
   id="path3884"
   inkscape:connector-curvature="0"
   sodipodi:nodetypes="cccsccccccsssss" />
			
			
			
			
			
			
			
		</g>
	</g>
</g>
<g
   id="g3906">
</g>
<g
   id="g3908">
</g>
<g
   id="g3910">
</g>
<g
   id="g3912">
</g>
<g
   id="g3914">
</g>
<g
   id="g3916">
</g>
<g
   id="g3918">
</g>
<g
   id="g3920">
</g>
<g
   id="g3922">
</g>
<g
   id="g3924">
</g>
<g
   id="g3926">
</g>
<g
   id="g3928">
</g>
<g
   id="g3930">
</g>
<g
   id="g3932">
</g>
<g
   id="g3934">
</g>
</svg>