<?xml version="1.0" encoding="UTF-8" standalone="no"?>
<!-- Generator: Adobe Illustrator 19.1.0, SVG Export Plug-In . SVG Version: 6.00 Build 0)  -->

<svg
   xmlns:dc="http://purl.org/dc/elements/1.1/"
   xmlns:cc="http://creativecommons.org/ns#"
   xmlns:rdf="http://www.w3.org/1999/02/22-rdf-syntax-ns#"
   xmlns:svg="http://www.w3.org/2000/svg"
   xmlns="http://www.w3.org/2000/svg"
   xmlns:sodipodi="http://sodipodi.sourceforge.net/DTD/sodipodi-0.dtd"
   xmlns:inkscape="http://www.inkscape.org/namespaces/inkscape"
   version="1.1"
   id="Layer_2"
   x="0px"
   y="0px"
   viewBox="0 0 64 64"
   style="enable-background:new 0 0 64 64;"
   xml:space="preserve"
   sodipodi:docname="sunrise-no-arrow.svg"
   inkscape:version="0.92.4 (5da689c313, 2019-01-14)"><metadata
   id="metadata3991"><rdf:RDF><cc:Work
       rdf:about=""><dc:format>image/svg+xml</dc:format><dc:type
         rdf:resource="http://purl.org/dc/dcmitype/StillImage" /><dc:title></dc:title></cc:Work></rdf:RDF></metadata><defs
   id="defs3989" /><sodipodi:namedview
   pagecolor="#ffffff"
   bordercolor="#666666"
   borderopacity="1"
   objecttolerance="10"
   gridtolerance="10"
   guidetolerance="10"
   inkscape:pageopacity="0"
   inkscape:pageshadow="2"
   inkscape:window-width="1920"
   inkscape:window-height="1017"
   id="namedview3987"
   showgrid="false"
   inkscape:zoom="14.75"
   inkscape:cx="38.344412"
   inkscape:cy="30.490195"
   inkscape:window-x="-8"
   inkscape:window-y="32"
   inkscape:window-maximized="1"
   inkscape:current-layer="Layer_2" />
<style
   type="text/css"
   id="style3968">
	.st0{fill:#202020;}
</style>
<g
   id="g3984">
	<path
   class="st0"
   d="M32,22c1.1,0,2-0.9,2-2v-8c0-1.1-0.9-2-2-2s-2,0.9-2,2v8C30,21.1,30.9,22,32,22z"
   id="path3970" />
	<path
   class="st0"
   d="M50,40c0,1.1,0.9,2,2,2h8c1.1,0,2-0.9,2-2s-0.9-2-2-2h-8C50.9,38,50,38.9,50,40z"
   id="path3972" />
	<path
   class="st0"
   d="M4,42h8c1.1,0,2-0.9,2-2s-0.9-2-2-2H4c-1.1,0-2,0.9-2,2S2.9,42,4,42z"
   id="path3974" />
	<path
   class="st0"
   d="m 2,53.050847 h 60 c 1.1,0 2,-0.9 2,-2 0,-1.1 -0.9,-2 -2,-2 -43.309269,0 -17.421516,0 -60,0 -1.1,0 -2,0.9 -2,2 0,1.1 0.9,2 2,2 z"
   id="path3976"
   inkscape:connector-curvature="0"
   style="fill:#202020"
   sodipodi:nodetypes="sssccss" />
	<path
   class="st0"
   d="M17,27.8c0.4,0.4,0.9,0.6,1.4,0.6s1-0.2,1.4-0.6c0.8-0.8,0.8-2,0-2.8l-5.7-5.7c-0.8-0.8-2-0.8-2.8,0   c-0.8,0.8-0.8,2,0,2.8L17,27.8z"
   id="path3978" />
	<path
   class="st0"
   d="M45.6,28.4c0.5,0,1-0.2,1.4-0.6l5.7-5.7c0.8-0.8,0.8-2,0-2.8s-2-0.8-2.8,0L44.1,25c-0.8,0.8-0.8,2,0,2.8   C44.5,28.2,45,28.4,45.6,28.4z"
   id="path3980" />
	<path
   class="st0"
   d="M18.8,44.7c0.4,1,1.5,1.6,2.6,1.2c1-0.4,1.6-1.5,1.2-2.6C22.2,42.3,22,41.1,22,40c0-5.5,4.5-10,10-10   s10,4.5,10,10c0,1.2-0.2,2.3-0.6,3.4c-0.4,1,0.2,2.2,1.2,2.6c0.2,0.1,0.5,0.1,0.7,0.1c0.8,0,1.6-0.5,1.9-1.3   c0.6-1.5,0.9-3.2,0.9-4.8c0-7.7-6.3-14-14-14s-14,6.3-14,14C18,41.6,18.3,43.2,18.8,44.7z"
   id="path3982" />
</g>
</svg>