<?xml version="1.0" encoding="UTF-8" standalone="no"?>
<!-- Generator: Adobe Illustrator 19.1.0, SVG Export Plug-In . SVG Version: 6.00 Build 0)  -->

<svg
   xmlns:dc="http://purl.org/dc/elements/1.1/"
   xmlns:cc="http://creativecommons.org/ns#"
   xmlns:rdf="http://www.w3.org/1999/02/22-rdf-syntax-ns#"
   xmlns:svg="http://www.w3.org/2000/svg"
   xmlns="http://www.w3.org/2000/svg"
   xmlns:sodipodi="http://sodipodi.sourceforge.net/DTD/sodipodi-0.dtd"
   xmlns:inkscape="http://www.inkscape.org/namespaces/inkscape"
   version="1.1"
   id="Layer_2"
   x="0px"
   y="0px"
   viewBox="0 0 64 64"
   style="enable-background:new 0 0 64 64;"
   xml:space="preserve"
   sodipodi:docname="wind-simpler.svg"
   inkscape:version="0.92.4 (5da689c313, 2019-01-14)"><metadata
   id="metadata4029"><rdf:RDF><cc:Work
       rdf:about=""><dc:format>image/svg+xml</dc:format><dc:type
         rdf:resource="http://purl.org/dc/dcmitype/StillImage" /><dc:title></dc:title></cc:Work></rdf:RDF></metadata><defs
   id="defs4027" /><sodipodi:namedview
   pagecolor="#ffffff"
   bordercolor="#666666"
   borderopacity="1"
   objecttolerance="10"
   gridtolerance="10"
   guidetolerance="10"
   inkscape:pageopacity="0"
   inkscape:pageshadow="2"
   inkscape:window-width="1920"
   inkscape:window-height="1017"
   id="namedview4025"
   showgrid="false"
   inkscape:zoom="10.429825"
   inkscape:cx="46.467826"
   inkscape:cy="28.805836"
   inkscape:window-x="-8"
   inkscape:window-y="32"
   inkscape:window-maximized="1"
   inkscape:current-layer="Layer_2" />
<style
   type="text/css"
   id="style4012">
	.st0{fill:#202020;}
</style>
<g
   id="g4022">
	<path
   class="st0"
   d="M32,38H8c-2.2,0-4-1.8-4-4s1.8-4,4-4h26c6.6,0,12-5.4,12-12S40.6,6,34,6c-1.1,0-2,0.9-2,2s0.9,2,2,2   c4.4,0,8,3.6,8,8s-3.6,8-8,8H8c-4.4,0-8,3.6-8,8s3.6,8,8,8h24c3.3,0,6,2.7,6,6s-2.7,6-6,6c-1.1,0-2,0.9-2,2s0.9,2,2,2   c5.5,0,10-4.5,10-10S37.5,38,32,38z"
   id="path4014" />
	
	<path
   class="st0"
   d="M42,32c0,1.1,0.9,2,2,2h6c5.5,0,10-4.5,10-10c0-5.5-4.5-10-10-10c-1.1,0-2,0.9-2,2s0.9,2,2,2c3.3,0,6,2.7,6,6   c0,3.3-2.7,6-6,6h-6C42.9,30,42,30.9,42,32z"
   id="path4018" />
	<path
   class="st0"
   d="M56,38H44c-1.1,0-2,0.9-2,2s0.9,2,2,2h12c2.2,0,4,1.8,4,4c0,2.2-1.8,4-4,4c-1.1,0-2,0.9-2,2s0.9,2,2,2   c4.4,0,8-3.6,8-8C64,41.6,60.4,38,56,38z"
   id="path4020" />
</g>
</svg>